<svg width="34" height="34" viewBox="0 0 34 34" fill="none" xmlns="http://www.w3.org/2000/svg">
<path d="M15.1339 0.714287H2.07144C1.32077 0.714287 0.714294 1.32076 0.714294 2.07143V15.1339C0.714294 15.3205 0.866973 15.4732 1.05358 15.4732H15.1339C15.3205 15.4732 15.4732 15.3205 15.4732 15.1339V1.05357C15.4732 0.866965 15.3205 0.714287 15.1339 0.714287ZM12.7589 12.7589H3.42858V3.42857H12.7589V12.7589ZM6.90626 9.62054H9.28126C9.46787 9.62054 9.62054 9.46786 9.62054 9.28125V6.90625C9.62054 6.71964 9.46787 6.56697 9.28126 6.56697H6.90626C6.71965 6.56697 6.56697 6.71964 6.56697 6.90625V9.28125C6.56697 9.46786 6.71965 9.62054 6.90626 9.62054ZM15.1339 18.5268H1.05358C0.866973 18.5268 0.714294 18.6795 0.714294 18.8661V31.9286C0.714294 32.6792 1.32077 33.2857 2.07144 33.2857H15.1339C15.3205 33.2857 15.4732 33.133 15.4732 32.9464V18.8661C15.4732 18.6795 15.3205 18.5268 15.1339 18.5268ZM12.7589 30.5714H3.42858V21.2411H12.7589V30.5714ZM6.90626 27.433H9.28126C9.46787 27.433 9.62054 27.2804 9.62054 27.0938V24.7188C9.62054 24.5321 9.46787 24.3795 9.28126 24.3795H6.90626C6.71965 24.3795 6.56697 24.5321 6.56697 24.7188V27.0938C6.56697 27.2804 6.71965 27.433 6.90626 27.433ZM31.9286 0.714287H18.8661C18.6795 0.714287 18.5268 0.866965 18.5268 1.05357V15.1339C18.5268 15.3205 18.6795 15.4732 18.8661 15.4732H32.9464C33.133 15.4732 33.2857 15.3205 33.2857 15.1339V2.07143C33.2857 1.32076 32.6792 0.714287 31.9286 0.714287ZM30.5714 12.7589H21.2411V3.42857H30.5714V12.7589ZM24.7188 9.62054H27.0938C27.2804 9.62054 27.433 9.46786 27.433 9.28125V6.90625C27.433 6.71964 27.2804 6.56697 27.0938 6.56697H24.7188C24.5322 6.56697 24.3795 6.71964 24.3795 6.90625V9.28125C24.3795 9.46786 24.5322 9.62054 24.7188 9.62054ZM32.9464 18.5268H30.9107C30.7241 18.5268 30.5714 18.6795 30.5714 18.8661V24.5491H27.2634V18.8661C27.2634 18.6795 27.1107 18.5268 26.9241 18.5268H18.8661C18.6795 18.5268 18.5268 18.6795 18.5268 18.8661V32.9464C18.5268 33.133 18.6795 33.2857 18.8661 33.2857H20.9018C21.0884 33.2857 21.2411 33.133 21.2411 32.9464V22.5982H24.5491V26.9241C24.5491 27.1107 24.7018 27.2634 24.8884 27.2634H32.9464C33.133 27.2634 33.2857 27.1107 33.2857 26.9241V18.8661C33.2857 18.6795 33.133 18.5268 32.9464 18.5268ZM26.9241 30.5714H24.8884C24.7018 30.5714 24.5491 30.7241 24.5491 30.9107V32.9464C24.5491 33.133 24.7018 33.2857 24.8884 33.2857H26.9241C27.1107 33.2857 27.2634 33.133 27.2634 32.9464V30.9107C27.2634 30.7241 27.1107 30.5714 26.9241 30.5714ZM32.9464 30.5714H30.9107C30.7241 30.5714 30.5714 30.7241 30.5714 30.9107V32.9464C30.5714 33.133 30.7241 33.2857 30.9107 33.2857H32.9464C33.133 33.2857 33.2857 33.133 33.2857 32.9464V30.9107C33.2857 30.7241 33.133 30.5714 32.9464 30.5714Z" fill="white"/>
</svg>
