<svg width="58" height="62" viewBox="0 0 58 62" fill="none" xmlns="http://www.w3.org/2000/svg">
<path d="M55.2969 50.0946C53.8653 46.7035 51.7877 43.6233 49.1799 41.0254C46.5801 38.4201 43.5003 36.3429 40.1107 34.9085C40.0804 34.8933 40.05 34.8857 40.0197 34.8705C44.7478 31.4554 47.8214 25.8924 47.8214 19.6161C47.8214 9.21875 39.3973 0.794647 29 0.794647C18.6027 0.794647 10.1786 9.21875 10.1786 19.6161C10.1786 25.8924 13.2522 31.4554 17.9804 34.8781C17.95 34.8933 17.9197 34.9009 17.8893 34.9161C14.4893 36.3504 11.4384 38.4072 8.82011 41.033C6.21478 43.6329 4.13755 46.7126 2.70314 50.1022C1.29398 53.4207 0.533985 56.9785 0.464301 60.583C0.462275 60.664 0.476483 60.7446 0.506086 60.82C0.53569 60.8955 0.580091 60.9642 0.636672 61.0222C0.693253 61.0802 0.760871 61.1263 0.83554 61.1577C0.910209 61.1892 0.990419 61.2054 1.07144 61.2054H5.62502C5.95894 61.2054 6.22457 60.9397 6.23216 60.6134C6.38394 54.7545 8.73662 49.2674 12.8956 45.1085C17.1987 40.8054 22.9134 38.4375 29 38.4375C35.0866 38.4375 40.8014 40.8054 45.1045 45.1085C49.2634 49.2674 51.6161 54.7545 51.7679 60.6134C51.7755 60.9473 52.0411 61.2054 52.375 61.2054H56.9286C57.0096 61.2054 57.0898 61.1892 57.1645 61.1577C57.2392 61.1263 57.3068 61.0802 57.3634 61.0222C57.4199 60.9642 57.4643 60.8955 57.4939 60.82C57.5235 60.7446 57.5378 60.664 57.5357 60.583C57.4598 56.9554 56.7085 53.4263 55.2969 50.0946ZM29 32.6696C25.5165 32.6696 22.238 31.3112 19.7714 28.8446C17.3049 26.3781 15.9464 23.0996 15.9464 19.6161C15.9464 16.1326 17.3049 12.854 19.7714 10.3875C22.238 7.92099 25.5165 6.5625 29 6.5625C32.4835 6.5625 35.7621 7.92099 38.2286 10.3875C40.6951 12.854 42.0536 16.1326 42.0536 19.6161C42.0536 23.0996 40.6951 26.3781 38.2286 28.8446C35.7621 31.3112 32.4835 32.6696 29 32.6696Z" fill="white"/>
</svg>
