<svg width="18" height="20" viewBox="0 0 18 20" fill="none" xmlns="http://www.w3.org/2000/svg">
<path d="M14.5134 6.04911C14.5134 2.99108 12.0357 0.513397 8.97771 0.513397C5.91967 0.513397 3.44199 2.99108 3.44199 6.04911C3.44199 7.89733 4.34824 9.53572 5.7411 10.5402C5.73217 10.5446 5.72548 10.5469 5.72101 10.5491C4.72324 10.971 3.82815 11.5759 3.05807 12.3482C2.29242 13.1125 1.68287 14.0185 1.26342 15.0156C0.850728 15.9921 0.628002 17.0383 0.607173 18.0982C0.606577 18.122 0.610755 18.1457 0.619462 18.1679C0.628169 18.1901 0.641228 18.2103 0.65787 18.2274C0.674511 18.2444 0.694399 18.258 0.71636 18.2672C0.738322 18.2765 0.761913 18.2813 0.785744 18.2813H2.1228C2.21878 18.2813 2.29914 18.2031 2.30137 18.1071C2.34601 16.3839 3.03574 14.7701 4.25673 13.5469C5.51789 12.2813 7.19199 11.5848 8.97771 11.5848C12.0357 11.5848 14.5134 9.10715 14.5134 6.04911ZM8.97771 9.8884C6.85717 9.8884 5.13842 8.16965 5.13842 6.04911C5.13842 3.92858 6.85717 2.20983 8.97771 2.20983C11.0982 2.20983 12.817 3.92858 12.817 6.04911C12.817 8.16965 11.0982 9.8884 8.97771 9.8884ZM11.3215 14.8214H17.2143C17.3125 14.8214 17.3929 14.7411 17.3929 14.6429V13.3929C17.3929 13.2946 17.3125 13.2143 17.2143 13.2143H13.2746L14.3282 11.8728C14.3525 11.8415 14.3658 11.803 14.3661 11.7634C14.3661 11.6652 14.2857 11.5848 14.1875 11.5848H12.567C12.4576 11.5848 12.3549 11.6362 12.2857 11.721L10.7567 13.6652C10.6585 13.7902 10.6049 13.9464 10.6049 14.1071C10.6072 14.5022 10.9264 14.8214 11.3215 14.8214ZM16.6786 16.25H10.7857C10.6875 16.25 10.6072 16.3304 10.6072 16.4286V17.6786C10.6072 17.7768 10.6875 17.8571 10.7857 17.8571H14.7255L13.6719 19.1987C13.6476 19.23 13.6343 19.2684 13.634 19.308C13.634 19.4063 13.7143 19.4866 13.8125 19.4866H15.4331C15.5424 19.4866 15.6451 19.4353 15.7143 19.3505L17.2433 17.4063C17.3415 17.2813 17.3951 17.125 17.3951 16.9643C17.3929 16.5692 17.0737 16.25 16.6786 16.25Z" fill="#137FA0"/>
</svg>
