<svg width="16" height="18" viewBox="0 0 16 18" fill="none" xmlns="http://www.w3.org/2000/svg">
<path d="M15.1429 7.92857H3.98217V2.92857C3.98217 2.23884 4.54244 1.67857 5.23217 1.67857H10.7679C11.4576 1.67857 12.0179 2.23884 12.0179 2.92857V4.44643C12.0179 4.54464 12.0982 4.625 12.1965 4.625H13.4465C13.5447 4.625 13.625 4.54464 13.625 4.44643V2.92857C13.625 1.35044 12.346 0.0714264 10.7679 0.0714264H5.23217C3.65404 0.0714264 2.37503 1.35044 2.37503 2.92857V7.92857H0.857169C0.46208 7.92857 0.142883 8.24777 0.142883 8.64285V17.2143C0.142883 17.6094 0.46208 17.9286 0.857169 17.9286H15.1429C15.538 17.9286 15.8572 17.6094 15.8572 17.2143V8.64285C15.8572 8.24777 15.538 7.92857 15.1429 7.92857ZM14.25 16.3214H1.75003V9.53571H14.25V16.3214ZM7.37503 13.2187V14.4018C7.37503 14.5 7.45538 14.5804 7.5536 14.5804H8.44646C8.54467 14.5804 8.62503 14.5 8.62503 14.4018V13.2187C8.80928 13.0865 8.94681 12.8991 9.01782 12.6837C9.08882 12.4683 9.08964 12.2359 9.02016 12.0199C8.95067 11.804 8.81447 11.6157 8.63115 11.4821C8.44783 11.3485 8.22685 11.2766 8.00003 11.2766C7.7732 11.2766 7.55222 11.3485 7.3689 11.4821C7.18558 11.6157 7.04938 11.804 6.97989 12.0199C6.91041 12.2359 6.91123 12.4683 6.98223 12.6837C7.05324 12.8991 7.19077 13.0865 7.37503 13.2187Z" fill="#137FA0"/>
</svg>
