<?xml version="1.0" encoding="utf-8"?>
<!-- Uploaded to: SVG Repo, www.svgrepo.com, Generator: SVG Repo Mixer Tools -->
<svg width="800px" height="800px" viewBox="0 0 24 24" fill="none" xmlns="http://www.w3.org/2000/svg">
<g id="style=fill">
<g id="warning">
<path id="Subtract" fill-rule="evenodd" clip-rule="evenodd" d="M1.25 7.25C1.25 3.93629 3.93629 1.25 7.25 1.25L16.75 1.25C20.0637 1.25 22.75 3.93629 22.75 7.25L22.75 16.75C22.75 20.0637 20.0637 22.75 16.75 22.75L7.25 22.75C3.93629 22.75 1.25 20.0637 1.25 16.75L1.25 7.25ZM12 5.25C12.4142 5.25 12.75 5.58579 12.75 6L12.75 15C12.75 15.4142 12.4142 15.75 12 15.75C11.5858 15.75 11.25 15.4142 11.25 15L11.25 6C11.25 5.58579 11.5858 5.25 12 5.25ZM12 17C11.4477 17 11 17.4477 11 18C11 18.5523 11.4477 19 12 19L12.01 19C12.5623 19 13.01 18.5523 13.01 18C13.01 17.4477 12.5623 17 12.01 17L12 17Z" fill="#000000"/>
</g>
</g>
</svg>